<svg width="10" height="11" viewBox="0 0 10 11" fill="none" xmlns="http://www.w3.org/2000/svg">
<path d="M5.05101 7.13914L8.40451 3.79014C8.43707 3.75741 8.47586 3.73155 8.51859 3.71409C8.56132 3.69663 8.60712 3.68792 8.65328 3.68848C8.69944 3.68904 8.74501 3.69885 8.78731 3.71735C8.8296 3.73584 8.86776 3.76263 8.89951 3.79614C8.96457 3.86467 9.00033 3.95587 8.99921 4.05035C8.99809 4.14484 8.96017 4.23517 8.89351 4.30214L5.29201 7.89864C5.2597 7.93117 5.22122 7.95694 5.17883 7.97443C5.13644 7.99192 5.09099 8.00079 5.04513 8.00051C4.99928 8.00023 4.95394 7.99081 4.91176 7.9728C4.86959 7.9548 4.83143 7.92856 4.79951 7.89564L1.10201 4.11014C1.03657 4.04237 1 3.95184 1 3.85764C1 3.76343 1.03657 3.67291 1.10201 3.60514C1.13417 3.57202 1.17264 3.5457 1.21515 3.52773C1.25767 3.50975 1.30336 3.50049 1.34951 3.50049C1.39567 3.50049 1.44136 3.50975 1.48387 3.52773C1.52638 3.5457 1.56486 3.57202 1.59701 3.60514L5.05101 7.13914Z" fill="black"/>
</svg>
